<!DOCTYPE svg PUBLIC "-//W3C//DTD SVG 1.1//EN" "http://www.w3.org/Graphics/SVG/1.1/DTD/svg11.dtd">
<!-- Uploaded to: SVG Repo, www.svgrepo.com, Transformed by: SVG Repo Mixer Tools -->
<svg width="800px" height="800px" viewBox="0 0 24 24" fill="none" xmlns="http://www.w3.org/2000/svg" stroke="#0033ff">
<g id="SVGRepo_bgCarrier" stroke-width="0"/>
<g id="SVGRepo_tracerCarrier" stroke-linecap="round" stroke-linejoin="round"/>
<g id="SVGRepo_iconCarrier"> <path d="M12 22C15.0376 22 17.5 19.5376 17.5 16.5C17.5 14.7636 16.6954 13.2152 15.4386 12.2072C15.1749 11.9957 15 11.6857 15 11.3477V5C15 3.34315 13.6569 2 12 2C10.3431 2 9 3.34315 9 5V11.3477C9 11.6857 8.82505 11.9957 8.56141 12.2072C7.30465 13.2152 6.5 14.7636 6.5 16.5C6.5 19.5376 8.96243 22 12 22Z" stroke="#002ab3" stroke-width="1.5"/> <path d="M14.5 16.5C14.5 17.8807 13.3807 19 12 19C10.6193 19 9.5 17.8807 9.5 16.5C9.5 15.1193 10.6193 14 12 14C13.3807 14 14.5 15.1193 14.5 16.5Z" stroke="#002ab3" stroke-width="1.5"/> <path d="M12 14V5" stroke="#002ab3" stroke-width="1.5" stroke-linecap="round"/> </g>
</svg>